<?xml version="1.0" standalone="no"?>
<!DOCTYPE svg PUBLIC "-//W3C//DTD SVG 20010904//EN"
 "http://www.w3.org/TR/2001/REC-SVG-20010904/DTD/svg10.dtd">
<svg version="1.0" xmlns="http://www.w3.org/2000/svg"
 width="896.000000pt" height="1195.000000pt" viewBox="0 0 896.000000 1195.000000"
 preserveAspectRatio="xMidYMid meet">
<metadata>
Created by potrace 1.16, written by Peter Selinger 2001-2019
</metadata>
<g transform="translate(0.000000,1195.000000) scale(0.100000,-0.100000)"
fill="#000000" stroke="none">
<path d="M450 11764 c0 -65 7 -375 15 -689 36 -1456 39 -1654 27 -1850 -10
-160 -9 -208 3 -300 24 -178 34 -428 55 -1370 22 -980 25 -1559 10 -1734 -7
-81 -7 -139 1 -195 33 -244 40 -475 50 -1566 15 -1675 15 -1670 28 -1683 12
-12 9 89 -5 197 l-5 39 43 -6 c24 -3 132 -14 240 -23 226 -20 202 -3 214 -151
3 -51 11 -93 16 -93 5 0 7 8 4 18 -2 9 -8 59 -11 109 l-7 93 44 0 c42 0 44 -1
43 -27 -2 -19 -1 -21 2 -5 4 18 11 22 41 22 29 0 39 -5 48 -25 9 -18 9 -25 0
-29 -6 -2 -1 -3 12 -3 12 1 22 8 23 17 0 10 3 9 9 -5 l9 -20 1 20 1 20 10 -20
9 -20 -3 20 c-2 16 -9 19 -33 18 -20 -2 -31 2 -31 11 0 10 16 12 71 8 82 -5
104 -17 209 -114 l68 -63 94 -335 c52 -184 95 -340 95 -347 0 -14 -224 -16
-480 -4 l-135 6 -11 103 c-6 56 -14 105 -19 110 -4 4 -5 -9 -1 -28 4 -19 9
-69 13 -110 l6 -75 -72 3 c-45 2 -71 0 -71 -7 0 -5 5 -43 11 -84 l11 -73 84 4
84 5 0 -27 c0 -14 -5 -26 -11 -26 -5 0 -7 4 -4 10 3 5 1 10 -4 10 -13 0 -14
-10 -1 -30 5 -8 10 -10 11 -5 3 21 18 -72 19 -115 0 -25 5 -52 11 -60 7 -11 9
-5 5 25 -3 22 -8 79 -11 128 l-7 87 84 0 c45 0 99 3 118 6 31 5 36 2 47 -20 8
-18 8 -26 0 -26 -6 0 -8 -3 -4 -6 10 -10 28 7 20 19 -19 30 -11 37 45 37 32 0
114 3 183 7 l127 6 43 -174 c38 -154 43 -190 47 -315 4 -141 4 -141 -20 -147
-12 -4 -161 -7 -330 -7 l-308 0 -1 23 c0 20 -1 20 -8 3 -7 -18 -25 -19 -407
-19 l-399 0 370 -8 c204 -5 537 -8 740 -6 l370 2 3 120 c3 131 -2 168 -55 389
l-35 148 -212 -7 c-116 -4 -295 -10 -398 -14 l-186 -6 -11 70 c-5 38 -9 71 -7
72 1 2 92 -2 202 -7 109 -5 284 -10 387 -10 175 0 188 1 183 18 -69 246 -190
672 -196 688 -5 12 -49 56 -99 98 l-91 77 2 172 c1 95 -4 687 -10 1317 -10
1081 -18 1366 -42 1573 -7 60 -7 184 0 400 6 171 8 344 5 382 -3 39 -10 282
-15 540 -34 1587 -43 1855 -66 2044 -16 128 -12 261 8 261 41 0 1502 -475
2183 -708 143 -50 391 -131 550 -182 160 -50 337 -107 395 -125 58 -19 209
-65 335 -104 127 -38 295 -93 375 -121 80 -29 319 -111 532 -183 l387 -130 -6
-1091 c-5 -845 11 -3695 20 -3702 1 -1 243 -4 536 -8 405 -5 537 -9 542 -18 9
-14 23 -88 17 -92 -1 -2 -464 1 -1026 6 -1088 9 -2486 7 -2497 -3 -6 -7 38
-191 308 -1274 l142 -570 145 -5 145 -5 43 -179 c24 -98 41 -180 39 -183 -3
-2 -217 0 -476 6 -258 6 -853 11 -1321 11 -768 0 -1636 10 -2050 25 -89 3
-149 1 -140 -4 24 -13 1203 -31 2055 -31 429 0 1042 -5 1363 -11 321 -6 585
-9 586 -7 2 1 -18 89 -43 193 l-46 190 -145 5 -145 5 -227 910 c-124 500 -224
912 -221 915 6 6 1558 6 2752 0 l924 -5 -6 -140 c-4 -97 -15 -188 -36 -295
-53 -269 -57 -411 -16 -569 24 -94 61 -160 173 -310 55 -74 118 -168 140 -210
59 -110 115 -284 162 -498 57 -259 62 -273 135 -416 36 -69 79 -168 96 -219
32 -95 46 -127 34 -73 -19 79 -68 202 -129 320 -63 125 -68 139 -116 355 -49
222 -93 370 -144 483 -29 67 -127 216 -214 329 -117 150 -147 246 -147 468 0
138 4 174 35 325 38 184 38 193 30 740 -2 168 12 273 61 450 40 144 95 259
208 429 51 76 90 140 88 142 -4 4 -161 -227 -201 -296 -34 -59 -33 -44 0 23
47 93 190 290 204 282 14 -9 117 172 170 297 67 159 92 245 156 527 65 289 95
383 165 523 74 150 149 257 233 334 87 82 150 121 294 183 130 57 196 91 189
98 -3 2 -25 -7 -49 -20 -24 -14 -78 -39 -121 -56 -122 -49 -189 -85 -268 -149
-131 -104 -191 -185 -290 -389 -74 -153 -108 -255 -154 -469 -47 -222 -70
-310 -106 -422 -32 -96 -50 -125 -23 -37 23 75 72 294 99 435 28 150 99 351
191 537 l66 132 -16 253 c-20 309 -64 1035 -107 1738 -17 289 -34 528 -38 531
-8 9 -640 214 -1646 534 -483 154 -1047 340 -1328 439 -174 61 -360 116 -1157
341 -391 110 -694 203 -1045 321 -233 78 -835 265 -888 276 -9 2 -56 -32 -106
-74 -50 -43 -92 -78 -95 -78 -2 0 -78 105 -168 233 -274 388 -568 803 -837
1182 -140 198 -286 404 -324 458 -38 54 -72 96 -74 93 -2 -2 58 -91 133 -197
156 -220 304 -429 616 -870 l216 -306 13 -359 c10 -311 8 -878 -3 -890 -6 -5
-921 275 -929 284 -5 6 -16 448 -55 2176 -5 211 -14 265 -14 80z m1112 -1464
c52 -74 143 -204 203 -288 96 -137 109 -151 124 -139 9 7 51 44 93 80 43 37
83 67 89 67 16 0 183 -52 191 -59 12 -10 -151 -490 -214 -631 -31 -69 -66
-155 -78 -192 -12 -38 -26 -68 -32 -68 -6 0 -114 32 -242 72 l-231 72 0 486
c0 267 -4 546 -8 620 -5 78 -4 131 1 125 5 -6 51 -71 104 -145z m951 -412
c114 -34 207 -68 207 -74 0 -21 -168 -509 -203 -589 -19 -44 -50 -133 -68
-198 -22 -74 -38 -116 -45 -113 -7 3 -106 35 -221 71 -114 37 -212 70 -216 75
-11 10 34 140 98 280 28 63 89 226 134 363 46 136 88 247 94 247 7 1 105 -27
220 -62z m673 -221 c2 -2 -37 -111 -87 -243 -50 -131 -119 -332 -153 -447 -35
-114 -65 -209 -67 -212 -4 -4 -439 133 -448 141 -8 7 62 231 96 309 19 44 73
195 120 335 47 140 87 258 89 262 4 5 440 -135 450 -145z m242 -73 c119 -37
219 -68 221 -70 2 -2 -23 -74 -57 -161 -33 -87 -102 -292 -153 -455 -50 -164
-97 -298 -102 -298 -9 0 -438 139 -444 144 -1 0 27 96 62 211 66 218 238 695
251 695 2 0 102 -30 222 -66z m402 -120 c69 -20 161 -46 206 -60 l81 -24 -58
-173 c-32 -94 -101 -307 -153 -472 -65 -206 -99 -299 -108 -297 -36 9 -424
145 -431 151 -10 10 154 540 225 731 65 174 75 193 96 185 9 -3 73 -22 142
-41z m-3011 -75 c163 -49 347 -106 409 -125 l113 -35 -7 -73 c-4 -44 0 -127
10 -217 16 -147 36 -589 36 -806 l0 -121 -42 4 c-24 2 -180 11 -348 19 -168 8
-335 18 -371 21 l-65 6 -13 326 c-6 180 -19 388 -28 462 -8 74 -16 158 -16
185 0 92 16 445 21 445 2 0 138 -41 301 -91z m3501 -64 c91 -25 188 -52 216
-60 l51 -15 -39 -127 c-21 -71 -67 -216 -103 -323 -35 -107 -86 -268 -114
-356 l-51 -161 -228 72 c-125 41 -226 77 -226 82 4 20 246 777 274 855 19 52
36 85 43 83 7 -3 86 -25 177 -50z m473 -135 c258 -75 262 -76 265 -91 3 -17
-306 -959 -315 -959 -4 0 -317 96 -440 135 -9 3 -5 24 12 77 22 66 223 700
262 823 19 60 21 65 34 65 6 0 88 -22 182 -50z m414 -132 c115 -40 155 -64
336 -200 16 -12 16 -18 -12 -98 -16 -47 -81 -238 -145 -425 -64 -187 -118
-345 -121 -352 -3 -9 -30 -3 -97 21 -51 18 -164 55 -251 81 -90 28 -156 53
-154 59 3 6 74 224 158 483 85 260 157 473 161 473 4 0 60 -19 125 -42z m1208
-399 c963 -308 1708 -549 1713 -554 6 -6 15 -132 72 -1075 22 -366 52 -840 65
-1053 l24 -388 -60 -122 c-104 -206 -172 -398 -199 -562 -22 -136 -102 -441
-141 -542 -22 -55 -62 -138 -89 -183 -27 -46 -47 -87 -43 -93 3 -5 1 -7 -4 -4
-12 7 -126 -140 -186 -238 -49 -81 -152 -343 -171 -435 -29 -142 -39 -323 -28
-490 6 -85 10 -156 8 -157 -1 -1 -30 -3 -65 -5 l-63 -3 -39 160 -39 160 0 515
c0 283 -5 871 -10 1305 -6 512 -6 1142 0 1790 l10 1000 -22 17 c-13 9 -230
165 -483 345 -359 256 -1231 900 -1278 943 -5 4 119 -35 275 -87 155 -51 495
-162 753 -244z m-565 -31 l270 -201 0 -373 0 -372 -172 55 c-164 52 -591 198
-651 222 -16 6 -26 14 -23 19 2 4 66 187 141 407 157 458 153 445 160 445 3 0
127 -91 275 -202z m775 -567 c259 -184 485 -345 503 -358 l32 -24 0 -110 c0
-79 -3 -111 -12 -114 -7 -2 -200 -11 -428 -19 -228 -9 -454 -19 -502 -22 l-88
-6 0 502 c0 398 3 500 13 494 6 -5 224 -159 482 -343z m-5670 -36 c187 -9 359
-18 382 -21 l42 -5 5 -52 c6 -62 25 -1030 20 -1036 -4 -4 -816 49 -825 55 -3
2 -9 180 -13 396 -3 216 -9 460 -12 541 l-7 148 34 -5 c19 -3 187 -12 374 -21z
m6195 -835 l0 -250 -22 0 c-42 0 -842 -29 -920 -34 l-78 -4 0 247 0 248 98 6
c53 4 139 7 190 7 88 0 92 -1 93 -22 1 -21 2 -21 6 -3 8 33 23 42 23 14 0 -32
9 -42 26 -28 8 7 14 7 19 -1 9 -15 25 -2 25 22 0 15 -5 19 -19 15 -10 -2 -25
-1 -32 4 -9 6 3 9 33 9 26 0 50 -5 54 -11 5 -8 9 -8 14 1 7 12 181 23 418 28
l72 2 0 -250z m-6252 -261 c169 -11 352 -23 407 -27 l100 -7 6 -150 c9 -201
10 -851 3 -897 l-6 -37 -67 5 c-36 3 -216 16 -399 29 -183 14 -338 25 -345 25
-10 0 -13 113 -14 540 -1 297 0 540 3 540 3 0 143 -9 312 -21z m6252 -166 c0
-93 -3 -204 -6 -249 l-7 -80 -386 -13 c-212 -6 -441 -15 -508 -18 l-123 -6 0
245 0 245 68 6 c37 4 121 7 188 7 116 0 121 -1 132 -22 10 -23 11 -23 11 5 1
15 5 27 9 27 4 0 8 -12 7 -27 0 -24 4 -28 30 -28 24 0 31 5 33 24 3 20 0 23
-17 18 -12 -3 -24 -1 -27 4 -3 5 27 10 68 10 40 1 152 5 248 8 96 4 199 8 228
9 l52 2 0 -167z m-10 -587 l0 -244 -72 -6 c-69 -5 -797 -26 -900 -26 l-48 0 0
244 0 243 186 7 c151 6 188 5 195 -6 7 -10 9 -10 9 0 0 7 13 12 30 12 17 0 30
-5 30 -11 0 -5 -4 -7 -10 -4 -5 3 -10 -2 -11 -12 0 -16 -1 -16 -9 2 -8 19 -9
19 -9 -1 -1 -19 5 -22 34 -22 32 0 35 3 35 29 0 19 5 29 15 29 8 0 15 -6 16
-12 0 -9 2 -9 6 1 5 11 7 11 14 0 7 -11 11 -11 17 -2 8 12 67 16 355 21 l117
2 0 -244z m0 -511 l0 -245 -217 0 c-120 0 -350 -3 -510 -7 l-293 -6 0 236 c0
131 1 238 3 239 5 3 708 25 860 26 l157 2 0 -245z m-6240 170 c113 -8 243 -17
290 -20 47 -3 115 -8 153 -11 l67 -6 -1 -67 c-1 -36 4 -104 9 -151 14 -110 30
-425 34 -660 l3 -185 -45 3 c-25 1 -210 16 -412 32 -201 17 -368 30 -371 30
-2 0 -7 87 -11 193 -8 217 -32 552 -45 636 -8 52 -5 188 5 219 3 11 18 12 62
8 31 -3 149 -13 262 -21z m5725 -435 c-3 -5 7 -8 25 -5 24 3 30 0 30 -16 0
-20 -15 -26 -25 -9 -3 6 -11 10 -16 10 -6 0 -8 -4 -5 -9 4 -5 0 -12 -6 -14 -7
-3 7 -4 32 -4 29 1 47 7 52 17 5 12 7 11 8 -5 l1 -20 9 20 c7 17 9 17 9 3 1
-10 5 -18 10 -18 5 0 7 9 4 20 -6 22 -33 26 -51 8 -9 -9 -12 -7 -12 10 l0 22
223 0 224 0 7 -241 c4 -133 5 -243 3 -245 -2 -3 -234 -7 -516 -11 l-511 -6 0
247 0 247 208 -1 209 -1 -5 -24 c-4 -21 -1 -24 28 -23 17 1 34 7 36 15 2 7 6
20 9 28 2 8 9 15 15 15 6 0 9 -4 5 -10z m525 -751 l0 -249 -510 0 -510 0 -2
195 c-1 107 -2 219 -3 248 l0 52 505 5 c278 3 508 4 513 2 4 -2 7 -115 7 -253z
m-6063 101 c200 -17 365 -30 368 -30 3 0 5 -246 5 -546 l0 -545 -42 5 c-24 4
-205 20 -403 36 -198 17 -366 32 -374 33 -11 2 -14 91 -15 544 l-1 543 50 -6
c28 -2 213 -18 412 -34z m5488 -370 c-3 -5 -12 -7 -19 -4 -8 3 -17 1 -21 -5
-3 -7 0 -8 9 -5 10 4 16 1 16 -10 0 -10 -6 -13 -17 -9 -11 4 -15 2 -10 -3 5
-5 21 -9 37 -10 32 -2 47 20 29 42 -9 11 39 13 269 14 l279 0 6 -172 c4 -95 7
-206 7 -245 l0 -73 -515 0 -515 0 0 245 0 245 226 0 c141 0 223 -4 219 -10z
m583 -747 l2 -253 -510 0 -510 0 0 228 c0 125 -3 237 -6 249 l-6 23 493 3
c272 1 503 2 514 2 19 0 20 -8 23 -252z m-6163 27 c193 -16 375 -33 406 -36
l56 -6 8 -387 c9 -382 8 -681 -1 -690 -5 -5 -813 67 -823 74 -4 2 -4 34 -1 72
4 37 3 133 -1 213 -4 80 -10 290 -14 468 -4 259 -3 322 7 322 7 0 171 -13 363
-30z m6165 -447 c0 -125 5 -174 20 -233 11 -41 20 -81 20 -87 0 -10 -113 -13
-530 -13 l-530 0 0 245 0 245 510 0 510 0 0 -157z"/>
<path d="M1454 9023 c21 -245 26 -352 36 -673 5 -195 14 -589 20 -875 6 -286
15 -637 20 -780 11 -281 11 -681 1 -865 -3 -63 -3 -146 1 -185 23 -227 40
-800 43 -1515 3 -426 7 -934 11 -1129 l6 -354 542 7 c899 12 1487 24 1494 30
3 4 -5 41 -19 84 l-24 77 1 540 c5 2203 4 4116 -3 4524 l-8 484 -139 49 c-77
27 -144 52 -150 57 -6 5 -126 46 -266 91 -140 45 -546 178 -902 296 -355 118
-652 214 -659 214 -9 0 -10 -19 -5 -77z m621 -136 l400 -134 8 -59 c4 -32 6
-102 5 -154 l-3 -95 -395 -21 c-217 -12 -438 -23 -491 -26 l-97 -4 -7 171 c-6
169 -19 358 -31 467 l-6 57 108 -34 c60 -19 289 -95 509 -168z m800 -262 c198
-64 376 -123 395 -132 19 -9 94 -37 165 -63 l130 -47 3 -185 2 -186 -122 -6
c-328 -17 -923 -45 -924 -43 -1 1 -7 164 -14 362 -6 198 -12 372 -14 388 -1
15 2 27 8 27 6 0 173 -52 371 -115z m-381 -227 c3 -18 7 -124 10 -235 l6 -203
-28 0 c-15 0 -202 -9 -417 -20 -214 -11 -427 -20 -472 -20 l-83 0 0 143 c0 78
-3 181 -7 230 -5 80 -4 87 13 88 11 0 206 11 434 23 228 13 443 24 477 25 l62
1 5 -32z m1076 -633 l0 -235 -22 -4 c-29 -6 -1001 -46 -1005 -42 -4 4 -23 459
-20 463 3 2 904 48 1010 52 l37 1 0 -235z m-1056 43 c3 -79 7 -184 8 -234 l3
-91 -90 -6 c-187 -12 -905 -41 -909 -36 -2 2 -6 106 -8 231 l-5 227 61 5 c49
5 741 39 897 45 l37 1 6 -142z m1060 -335 c3 -21 6 -127 6 -235 0 -197 0 -198
-22 -202 -33 -7 -997 -40 -1002 -35 -2 2 -7 109 -11 237 l-7 232 58 1 c33 0
223 9 424 18 201 10 406 19 456 20 l91 1 7 -37z m-1044 -115 c0 -62 3 -170 6
-239 l7 -125 -339 -13 c-186 -8 -411 -17 -499 -20 -88 -4 -163 -5 -166 -2 -4
4 -9 108 -11 233 l-4 227 40 5 c23 3 237 14 476 24 239 11 447 20 463 21 l27
1 0 -112z m1052 -565 c2 -126 2 -230 1 -232 -3 -4 -398 -22 -809 -36 l-202 -7
-6 83 c-3 46 -7 150 -10 231 l-5 147 52 5 c29 3 205 10 392 16 187 7 347 13
355 15 8 1 63 3 122 4 l107 1 3 -227z m-1039 75 c4 -62 7 -166 7 -230 l0 -117
-32 -5 c-31 -4 -348 -18 -779 -33 l-187 -6 -6 134 c-3 74 -7 178 -9 231 l-4
97 61 5 c67 6 719 32 857 35 l86 1 6 -112z m1047 -557 l0 -229 -182 -7 c-101
-3 -304 -13 -453 -21 -148 -7 -295 -14 -326 -14 l-56 0 -1 230 -1 229 32 5
c18 3 183 10 367 16 184 6 346 13 360 14 14 2 78 4 143 5 l117 1 0 -229z
m-1030 -40 l0 -229 -72 -6 c-71 -5 -399 -19 -760 -33 l-178 -6 0 236 0 237
118 1 c64 0 243 7 397 13 154 7 328 14 388 14 l107 2 0 -229z m1020 -430 l0
-229 -122 -6 c-68 -3 -262 -10 -433 -16 -170 -5 -343 -12 -382 -15 l-73 -6 0
225 0 226 23 4 c25 5 704 37 935 44 l52 2 0 -229z m-1023 -45 l-2 -224 -190
-7 c-104 -4 -327 -13 -495 -19 -168 -7 -308 -10 -312 -6 -13 10 -21 202 -13
323 6 109 8 117 28 121 29 6 697 33 859 34 l127 2 -2 -224z m1027 -227 c3 -17
6 -121 6 -229 l0 -198 -102 -6 c-57 -3 -258 -10 -448 -16 -190 -6 -368 -12
-396 -15 l-51 -5 -7 217 c-4 119 -10 222 -13 228 -5 15 61 19 527 35 162 6
320 12 350 14 30 1 71 3 91 4 33 2 37 -1 43 -29z m-1020 -46 c3 -21 8 -125 12
-230 l6 -193 -63 0 c-52 0 -617 -21 -879 -32 l-65 -3 -10 227 -10 227 90 6
c76 5 700 29 862 34 l51 1 6 -37z m1023 -565 c-4 -95 -7 -203 -7 -239 l0 -67
-237 -6 c-131 -4 -276 -9 -323 -11 -47 -2 -163 -7 -257 -11 l-173 -6 0 71 c0
49 4 71 12 71 9 0 9 3 0 12 -7 7 -12 32 -11 57 0 26 3 40 6 34 7 -18 43 -16
43 2 0 9 -9 15 -25 15 -16 0 -25 6 -25 16 0 10 7 14 22 12 19 -3 22 2 24 30 1
25 -2 32 -17 32 -11 0 -19 -4 -19 -10 0 -5 8 -7 18 -3 14 5 13 3 -3 -10 -20
-15 -20 -14 -23 60 -2 41 -1 77 2 80 2 2 186 11 407 19 379 13 493 17 563 22
l29 2 -6 -172z m-1007 -102 l0 -234 -112 -6 c-168 -9 -872 -34 -876 -30 -2 1
-7 106 -10 233 l-7 231 40 4 c22 3 202 10 400 16 198 6 371 13 385 14 14 2 60
4 103 5 l77 1 0 -234z m1000 -451 c0 -129 -1 -235 -2 -236 -9 -2 -793 -28
-880 -28 l-108 -1 0 235 0 235 63 0 c34 0 120 3 190 7 75 3 127 2 126 -3 -4
-25 4 -36 11 -14 7 23 8 23 9 4 1 -18 7 -22 36 -22 30 0 35 3 35 23 0 18 4 22
20 18 11 -3 17 -9 14 -14 -3 -5 0 -9 5 -9 6 0 11 7 11 15 0 27 20 16 21 -12 1
-17 3 -21 6 -10 2 9 9 17 14 17 5 0 10 -8 10 -17 1 -15 2 -14 7 2 l5 20 8 -20
c7 -19 8 -19 8 3 1 14 -5 23 -16 24 -17 2 186 12 335 16 l72 2 0 -235z m-1000
-30 l0 -234 -32 -5 c-18 -3 -220 -10 -448 -16 -228 -6 -436 -13 -462 -16 l-48
-5 0 236 0 235 23 1 c112 4 927 36 945 38 l22 1 0 -235z m993 -466 l-6 -236
-211 -6 c-116 -4 -333 -10 -482 -13 l-271 -7 -6 233 c-4 129 -4 236 -2 239 3
2 188 10 412 17 225 8 442 15 483 16 41 2 78 1 81 -2 4 -3 4 -111 2 -241z
m-993 49 c1 -90 3 -195 6 -235 l6 -71 -73 -6 c-41 -3 -184 -8 -319 -11 -135
-3 -327 -8 -427 -12 l-183 -6 0 237 c0 182 3 236 13 237 52 4 748 26 850 28
l127 1 0 -162z m988 -540 l-3 -243 -230 -6 c-126 -4 -344 -9 -482 -13 l-253
-6 0 240 c0 184 3 242 13 245 6 2 192 8 412 13 220 5 433 9 473 10 l72 2 -2
-242z m-978 142 c0 -38 -3 -70 -6 -70 -3 0 -14 5 -25 10 -10 6 -19 7 -20 3 0
-4 -2 -20 -4 -35 -4 -29 9 -46 20 -28 3 5 2 10 -4 10 -6 0 -8 7 -5 15 4 8 15
15 25 15 18 0 19 -10 19 -163 l0 -164 -177 -6 c-98 -4 -323 -10 -500 -13
l-323 -7 0 241 0 242 133 1 c72 1 227 5 342 9 116 3 281 7 368 8 l157 2 0 -70z
m980 -552 c0 -136 3 -162 25 -232 14 -43 24 -80 23 -82 -3 -3 -1001 -23 -1005
-20 -1 1 -5 106 -9 234 l-7 232 119 1 c65 1 223 5 349 8 127 4 292 8 368 9
l137 2 0 -152z m-978 -99 c2 -127 1 -232 -2 -234 -3 -1 -227 -6 -499 -10
l-494 -7 5 51 c3 28 2 129 -3 223 -4 95 -5 175 -2 178 2 3 199 10 436 16 238
6 460 12 494 12 l62 2 3 -231z"/>
<path d="M3696 6328 c1 -1113 -2 -2329 -7 -2703 -5 -374 -6 -694 -3 -712 l5
-32 1162 3 1162 3 -1 254 c-4 1868 -17 4455 -22 4460 -4 4 -72 28 -152 54 -80
26 -343 114 -585 196 -242 81 -586 193 -765 249 -179 56 -429 135 -556 176
-126 41 -232 74 -235 74 -3 0 -4 -910 -3 -2022z m214 1944 c145 -47 760 -241
890 -281 l25 -8 3 -180 2 -181 -102 -6 c-231 -15 -1011 -46 -1016 -41 -3 2 -7
176 -10 386 -4 326 -3 381 9 377 8 -3 98 -33 199 -66z m2078 -865 l2 -185
-122 -5 c-302 -14 -1012 -36 -1016 -32 -3 2 -7 182 -10 399 l-5 395 574 -193
574 -194 3 -185z m-1158 -12 c0 -118 -1 -215 -2 -215 -41 -4 -995 -40 -1045
-40 l-73 0 0 209 0 208 128 6 c70 4 287 14 482 22 379 16 465 20 493 23 16 2
17 -14 17 -213z m1160 -394 l0 -209 -132 -6 c-73 -3 -295 -10 -493 -16 -198
-6 -395 -13 -437 -16 l-78 -7 0 212 0 211 28 0 c15 0 200 7 412 15 212 8 446
16 520 18 74 1 145 4 158 5 l22 2 0 -209z m-1160 -41 l0 -210 -42 0 c-24 0
-225 -7 -448 -15 -223 -8 -456 -15 -517 -15 l-113 0 0 199 0 200 53 5 c28 3
127 8 220 11 l167 5 1 -27 2 -28 4 28 c2 15 11 27 19 27 8 0 15 -11 15 -27 l2
-28 4 26 c4 22 9 26 45 27 38 2 40 1 34 -22 -5 -22 -3 -25 25 -24 20 1 26 4
17 9 -7 5 -8 9 -2 9 5 0 15 -5 22 -12 9 -9 12 -8 13 8 0 18 1 18 9 -1 l9 -20
1 20 1 20 9 -20 c8 -19 9 -18 9 4 1 20 -3 23 -29 19 -16 -3 -30 -1 -30 4 0 5
-9 6 -20 3 -11 -3 -20 -2 -20 3 0 5 106 14 248 19 136 5 257 10 270 11 l22 2
0 -210z m1160 -389 l0 -208 -177 -7 c-296 -11 -793 -26 -880 -26 l-83 0 0 204
0 204 138 6 c75 3 174 8 220 11 45 2 81 1 79 -3 -3 -4 -1 -16 4 -27 7 -17 8
-17 8 8 1 22 6 27 26 27 16 0 25 -6 25 -15 0 -8 5 -15 10 -15 6 0 10 -5 10
-11 0 -5 -5 -7 -12 -3 -7 5 -8 3 -3 -5 5 -9 10 -10 18 -2 9 9 8 17 -1 31 -11
19 -9 20 33 20 25 0 44 -3 43 -7 -2 -5 2 -8 7 -8 6 0 9 3 8 8 -2 4 12 8 30 8
17 1 122 5 232 9 110 3 215 7 233 8 l32 2 0 -209z m-1158 -26 c0 -107 1 -201
2 -207 1 -10 -122 -16 -552 -26 -305 -8 -556 -11 -559 -8 -3 3 -8 93 -11 200
l-5 194 89 6 c49 3 253 11 454 16 201 6 385 12 410 14 25 1 73 3 108 4 l62 2
2 -195z m1158 -404 l0 -209 -92 -6 c-81 -5 -908 -26 -1010 -26 l-38 0 0 205 0
204 33 5 c17 3 125 7 239 10 l207 6 -4 -28 -4 -27 12 28 c10 25 15 27 66 26
31 0 49 -3 41 -6 -25 -10 -41 -43 -20 -43 6 0 11 8 11 18 1 16 2 16 6 0 7 -26
53 -20 53 7 -1 18 -1 19 -11 3 -5 -10 -15 -18 -21 -18 -7 0 -7 4 1 13 6 8 8
17 4 20 -8 9 -12 8 232 17 110 3 221 7 248 8 l47 2 0 -209z m-1160 -35 l0
-205 -42 -5 c-24 -3 -198 -8 -388 -11 -190 -3 -423 -8 -519 -12 l-174 -6 6
207 c3 115 7 209 9 211 2 2 99 5 216 7 l212 3 1 -25 c2 -24 2 -24 6 3 3 15 11
27 19 27 8 0 13 -3 11 -7 -3 -5 -1 -17 4 -28 7 -17 8 -17 8 8 1 15 5 27 11 27
5 0 7 -6 4 -14 -3 -7 3 -16 13 -20 15 -6 15 -8 3 -16 -11 -7 -10 -9 7 -8 19 2
23 28 4 28 -4 0 -8 7 -8 15 0 9 10 15 23 15 19 0 22 -4 19 -29 -4 -27 -1 -30
26 -29 19 1 29 6 29 17 0 14 2 14 10 1 9 -13 10 -13 10 0 0 13 1 13 10 0 9
-13 10 -13 10 0 0 13 1 13 10 0 8 -13 10 -13 10 1 0 12 -14 19 -52 25 l-53 8
90 6 c50 4 172 7 273 8 l182 2 0 -204z m1158 -392 l2 -201 -157 -7 c-87 -3
-306 -8 -488 -11 -181 -3 -367 -8 -412 -11 l-83 -6 0 201 c0 200 0 201 23 205
12 3 111 7 220 10 l197 4 1 -26 2 -27 4 28 c4 22 9 27 33 27 22 0 28 -4 24
-15 -4 -8 -1 -15 5 -15 6 0 11 -5 11 -11 0 -5 -5 -7 -12 -3 -7 4 -8 3 -4 -5
12 -19 28 -1 22 24 -6 22 -3 24 34 23 22 0 40 -4 40 -9 0 -5 -6 -6 -14 -3 -8
3 -16 -3 -19 -15 -3 -12 -1 -21 4 -21 5 0 9 6 9 13 0 9 2 9 8 0 9 -14 52 -13
52 2 0 5 5 3 10 -5 8 -12 10 -12 11 5 l0 20 10 -20 c9 -20 9 -20 6 0 -3 25
-37 33 -49 11 -5 -9 -14 -16 -21 -16 -8 0 -7 3 2 9 7 5 10 14 7 20 -5 7 10 11
46 12 29 1 139 5 243 9 105 4 199 6 210 6 19 -1 20 -9 23 -202z m-1158 -33 l0
-199 -327 -6 c-181 -3 -431 -7 -558 -8 l-230 -3 -3 198 -2 197 142 1 c79 1
238 5 353 9 116 3 303 7 418 8 l207 2 0 -199z m1160 -389 l0 -209 -207 -6
c-115 -4 -371 -10 -570 -13 l-363 -7 0 205 0 205 92 7 c50 3 149 6 220 6 l128
0 1 -27 2 -28 4 28 c2 15 9 27 14 27 5 0 9 -12 9 -27 l1 -28 14 30 c9 21 14
24 14 12 1 -10 6 -15 11 -12 6 3 10 2 10 -4 0 -5 -6 -12 -12 -14 -8 -3 -5 -6
6 -6 14 -1 17 4 13 25 -4 21 -1 25 17 22 15 -2 20 -9 19 -26 -2 -12 2 -22 8
-22 5 0 8 4 4 9 -3 5 -1 12 4 15 5 3 11 -1 15 -9 6 -17 26 -20 26 -4 0 5 -4 7
-10 4 -5 -3 -10 -1 -10 4 0 6 5 11 10 11 6 0 10 7 10 15 0 12 35 15 228 18
125 1 242 3 260 5 l32 2 0 -208z m-1158 -28 c2 -132 -1 -208 -7 -209 -5 -2
-259 -6 -562 -9 l-553 -6 0 205 0 205 98 0 c55 0 154 3 220 7 l122 6 1 -29 2
-29 4 28 c2 15 11 27 19 27 8 0 15 -11 15 -27 l2 -28 4 28 c2 15 8 27 12 27 5
0 6 -11 3 -25 -3 -17 0 -25 10 -25 22 0 28 11 17 31 -8 17 -6 19 21 19 29 0
40 -13 20 -25 -12 -7 -13 -25 -2 -25 5 0 13 12 19 28 l11 27 1 -27 c1 -16 5
-28 11 -28 5 0 7 8 4 18 -5 14 -3 14 10 -2 16 -20 16 -20 17 0 0 18 1 18 9 -1
l9 -20 1 20 1 20 9 -20 c8 -19 9 -19 9 3 1 19 -5 22 -36 24 -49 3 185 13 349
16 l127 2 3 -206z m1158 -409 l0 -215 -403 0 c-222 0 -479 -3 -570 -7 l-167
-6 0 206 0 206 43 5 c23 3 249 10 502 14 253 5 490 9 528 10 l67 2 0 -215z
m-1769 155 c5 0 9 -5 9 -11 0 -5 -6 -7 -12 -3 -10 5 -10 3 0 -7 11 -12 14 -12
22 1 7 10 5 19 -6 27 -13 10 -13 12 6 18 16 5 28 -1 49 -24 27 -31 61 -35 61
-7 0 6 5 4 10 -4 9 -13 10 -13 10 0 0 13 1 13 10 0 8 -13 10 -12 10 4 0 15 -6
17 -30 14 -16 -3 -30 0 -30 5 0 5 -7 7 -15 4 -8 -4 -17 -2 -20 3 -4 6 95 10
264 10 l271 0 0 -203 0 -204 -202 -6 c-112 -4 -364 -7 -560 -7 l-358 0 0 205
0 205 220 0 220 0 1 -22 2 -23 4 23 c2 12 8 22 12 22 4 0 13 -10 19 -22 10
-22 11 -22 12 7 2 18 4 23 7 13 2 -10 9 -18 14 -18z m1133 -402 c-3 -10 -1
-18 5 -18 6 0 11 -5 11 -11 0 -5 -5 -7 -12 -3 -7 4 -8 3 -4 -5 4 -6 12 -9 17
-6 13 9 11 33 -3 37 -22 8 33 30 57 24 18 -5 23 -12 22 -34 -2 -22 2 -26 18
-24 11 2 22 8 24 14 2 6 7 4 12 -3 7 -12 9 -11 9 1 0 13 1 13 10 0 8 -13 10
-12 10 3 0 28 -29 32 -56 7 -13 -13 -24 -18 -24 -12 0 7 5 12 11 12 6 0 9 7 5
15 -5 13 28 15 258 15 l263 0 8 -201 c4 -110 4 -204 0 -207 -4 -4 -263 -7
-576 -7 l-569 0 0 207 0 208 223 2 c122 2 237 3 255 4 27 0 31 -3 26 -18z
m-524 -196 l0 -209 -227 -6 c-124 -4 -376 -7 -560 -7 l-333 0 0 210 0 210 508
3 c279 1 531 3 560 5 l52 2 0 -208z m1170 -432 l0 -210 -575 2 -575 3 0 207 0
207 133 3 c72 2 331 2 575 0 l442 -2 0 -210z m-1168 1 l3 -209 -35 -6 c-19 -3
-275 -6 -567 -6 l-533 0 0 128 c0 70 3 164 7 209 l6 83 491 3 c270 1 521 3
558 5 l67 2 3 -209z m450 -221 c45 0 48 -1 49 -27 l2 -28 4 28 c2 15 9 27 14
27 6 0 7 -5 4 -10 -3 -6 1 -13 10 -16 13 -6 14 -8 3 -15 -10 -7 -9 -9 5 -9 9
0 17 7 17 15 0 8 -4 15 -10 15 -5 0 -10 5 -10 10 0 13 47 13 55 0 4 -6 1 -17
-5 -25 -10 -12 -9 -15 4 -15 9 0 15 3 15 8 -3 20 2 42 11 42 5 0 7 -7 4 -15
-4 -9 0 -15 7 -15 11 0 11 -3 -1 -10 -13 -8 -12 -10 4 -10 14 0 17 6 14 25
l-5 25 263 0 264 0 0 -221 0 -222 -72 7 c-40 3 -299 6 -576 7 l-502 1 2 212 3
211 115 6 c63 3 148 5 189 3 41 -2 96 -4 123 -4z m-450 -221 c2 -116 1 -213
-1 -215 -2 -2 -258 -4 -568 -4 l-563 0 0 210 0 209 88 4 c48 1 302 4 564 5
l477 2 3 -211z m951 -226 l217 -6 0 -210 0 -210 -152 6 c-83 4 -342 7 -575 7
l-423 0 0 204 c0 204 0 205 23 209 37 7 676 7 910 0z m-953 -206 l0 -204 -317
-6 c-174 -4 -428 -7 -565 -7 l-248 0 0 210 0 210 565 0 565 0 0 -203z"/>
<path d="M8828 5657 c-194 -106 -247 -156 -326 -312 -32 -64 -155 -436 -247
-750 -31 -104 -74 -251 -96 -325 -59 -197 -171 -439 -259 -555 -122 -163 -184
-364 -183 -595 1 -214 56 -413 190 -693 103 -217 123 -290 217 -807 113 -619
126 -678 167 -806 23 -68 45 -124 49 -124 4 0 -12 57 -36 128 -36 105 -58 207
-128 592 -145 793 -151 815 -280 1065 -59 114 -129 329 -151 463 -23 134 -16
332 13 444 32 120 79 222 143 311 33 45 95 154 138 242 82 165 91 193 245 710
36 121 99 324 141 452 117 357 168 423 427 558 59 31 108 58 108 61 0 10 -22
0 -132 -59z"/>
<path d="M2365 2528 c-335 -5 -612 -12 -616 -16 -3 -4 47 -185 112 -402 107
-355 187 -653 234 -873 12 -56 16 -111 14 -202 l-4 -125 100 2 100 2 -91 3
-92 4 -5 157 c-4 154 -5 162 -70 417 -37 143 -114 416 -171 606 -57 191 -107
361 -111 378 l-7 31 306 2 c168 1 314 2 323 2 14 1 25 -34 64 -199 25 -110
108 -462 183 -783 75 -321 136 -587 136 -592 0 -4 -28 -11 -62 -16 l-63 -9 95
-3 c52 -1 113 2 135 7 39 9 38 9 -25 10 l-65 1 -19 83 c-17 80 -97 423 -256
1097 -43 184 -81 352 -85 373 l-7 37 305 0 305 0 17 -72 c15 -68 106 -445 290
-1202 41 -170 75 -310 75 -312 0 -2 -37 -5 -82 -7 -46 -1 6 -4 114 -5 139 -1
199 1 204 9 5 9 -23 10 -109 5 l-115 -7 -7 33 c-4 18 -67 281 -141 583 -195
803 -233 969 -228 975 3 3 141 6 307 8 l302 3 193 -778 c107 -428 196 -786
199 -795 4 -15 -3 -18 -46 -18 -28 0 -51 -4 -51 -10 0 -5 25 -10 55 -10 51 0
55 2 54 23 0 12 -89 375 -197 807 l-197 785 -345 1 c-190 0 -619 -3 -955 -8z"/>
</g>
</svg>
